<svg xmlns="http://www.w3.org/2000/svg" width="200" height="300">
 <!-- Created with Method Draw - http://github.com/duopixel/Method-Draw/ -->

 <g>
  <title>background</title>
  <rect fill="#9d8ad3" id="canvas_background" height="302" width="202" y="-1" x="-1"/>
  <g display="none" overflow="visible" y="0" x="0" height="100%" width="100%" id="canvasGrid">
   <rect fill="url(#gridpattern)" stroke-width="0" y="0" x="0" height="100%" width="100%"/>
  </g>
 </g>
 <g>
  <title>Layer 1</title>
  <g stroke="null" id="svg_6">
   <path stroke="null" id="svg_4" fill="white" d="m128.4948,178.88876l-43.32456,0c-4.78549,0 -8.6649,-3.94743 -8.6649,-8.81692l0,-41.14562c0,-4.86946 3.87941,-8.81692 8.6649,-8.81692l43.32456,0l0,47.02353c-1.59519,0 -2.8883,1.31585 -2.8883,2.93901c0,1.62316 1.29311,2.93901 2.8883,2.93901l0,5.8779zm-8.66466,-8.81704c0,-1.03042 0.17378,-2.01974 0.49314,-2.93889l-35.15271,0c-1.59516,0 -2.8883,1.31573 -2.8883,2.93889c0,1.62316 1.29314,2.93901 2.8883,2.93901l35.15271,0c-0.31935,-0.91927 -0.49314,-1.90847 -0.49314,-2.93901zm-34.65957,-44.08439l37.54787,0l0,35.26772l-37.54787,0c-1.01273,0 -1.9849,0.1767 -2.8883,0.50165l0,-32.83041c0,-1.62315 1.29314,-2.93896 2.8883,-2.93896z" clip-rule="evenodd" fill-rule="evenodd"/>
   <path stroke="null" id="svg_5" fill="#9D89D3" d="m128.4948,178.88876l0,0.60806l0.60806,0l0,-0.60806l-0.60806,0zm0,-58.77946l0.60806,0l0,-0.60806l-0.60806,0l0,0.60806zm0,47.02353l0,0.60806l0.60806,0l0,-0.60806l-0.60806,0zm0,5.87803l0.60806,0l0,-0.60806l-0.60806,0l0,0.60806zm-8.17152,-5.87803l0.57438,0.19944l0.28044,-0.80751l-0.85482,0l0,0.60806zm0,5.8779l0,0.60806l0.85482,0l-0.28044,-0.80763l-0.57438,0.19957zm2.39516,-47.02341l0.60806,0l0,-0.60806l-0.60806,0l0,0.60806zm0,35.26772l0,0.60806l0.60806,0l0,-0.60806l-0.60806,0zm-40.43617,0.50165l-0.60806,0l0,0.86491l0.81386,-0.29272l-0.20579,-0.57219zm2.88797,17.74012l43.32456,0l0,-1.21613l-43.32456,0l0,1.21613zm-9.27297,-9.42498c0,5.19529 4.14173,9.42498 9.27297,9.42498l0,-1.21613c-4.43974,0 -8.05684,-3.66528 -8.05684,-8.20885l-1.21613,0zm0,-41.14562l0,41.14562l1.21613,0l0,-41.14562l-1.21613,0zm9.27297,-9.42498c-5.13124,0 -9.27297,4.22971 -9.27297,9.42498l1.21613,0c0,-4.54364 3.6171,-8.20885 8.05684,-8.20885l0,-1.21613zm43.32456,0l-43.32456,0l0,1.21613l43.32456,0l0,-1.21613zm0.60806,47.63159l0,-47.02353l-1.21613,0l0,47.02353l1.21613,0zm-2.8883,2.93901c0,-1.29736 1.03079,-2.33095 2.28024,-2.33095l0,-1.21613c-1.94094,0 -3.49636,1.59811 -3.49636,3.54708l1.21613,0zm2.28024,2.33095c-1.24945,0 -2.28024,-1.03359 -2.28024,-2.33095l-1.21613,0c0,1.94896 1.55543,3.54708 3.49636,3.54708l0,-1.21613zm0.60806,6.48597l0,-5.8779l-1.21613,0l0,5.8779l1.21613,0zm-9.35408,-11.9555c-0.34125,0.98263 -0.5267,2.0392 -0.5267,3.13846l1.21613,0c0,-0.96171 0.16211,-1.88354 0.45945,-2.73945l-1.14887,-0.39901zm-34.57821,0.80763l35.15271,0l0,-1.21613l-35.15271,0l0,1.21613zm-2.28024,2.33083c0,-1.29736 1.03083,-2.33083 2.28024,-2.33083l0,-1.21613c-1.94091,0 -3.49636,1.59799 -3.49636,3.54695l1.21613,0zm2.28024,2.33095c-1.24941,0 -2.28024,-1.03359 -2.28024,-2.33095l-1.21613,0c0,1.94896 1.55545,3.54708 3.49636,3.54708l0,-1.21613zm35.15271,0l-35.15271,0l0,1.21613l35.15271,0l0,-1.21613zm-1.1012,-2.33095c0,1.09926 0.18546,2.15583 0.5267,3.13858l1.14887,-0.39913c-0.29734,-0.85579 -0.45945,-1.77761 -0.45945,-2.73945l-1.21613,0zm3.49636,-44.69246l-37.54787,0l0,1.21613l37.54787,0l0,-1.21613zm0.60806,35.87578l0,-35.26772l-1.21613,0l0,35.26772l1.21613,0zm-38.15593,0.60806l37.54787,0l0,-1.21613l-37.54787,0l0,1.21613zm-2.68251,0.46578c0.83843,-0.3016 1.74103,-0.46578 2.68251,-0.46578l0,-1.21613c-1.08399,0 -2.12573,0.18923 -3.09408,0.53753l0.41157,1.14438zm-0.81386,-33.40259l0,32.83041l1.21613,0l0,-32.83041l-1.21613,0zm3.49636,-3.54703c-1.94091,0 -3.49636,1.59808 -3.49636,3.54703l1.21613,0c0,-1.29734 1.03083,-2.3309 2.28024,-2.3309l0,-1.21613z"/>
  </g>
 </g>
</svg>